<?xml version="1.0" encoding="UTF-8" standalone="no"?>
<svg
   xmlns:dc="http://purl.org/dc/elements/1.1/"
   xmlns:cc="http://creativecommons.org/ns#"
   xmlns:rdf="http://www.w3.org/1999/02/22-rdf-syntax-ns#"
   xmlns:svg="http://www.w3.org/2000/svg"
   xmlns="http://www.w3.org/2000/svg"
   xmlns:sodipodi="http://sodipodi.sourceforge.net/DTD/sodipodi-0.dtd"
   xmlns:inkscape="http://www.inkscape.org/namespaces/inkscape"
   width="24"
   height="24"
   viewBox="0 0 24 24"
   id="svg2"
   version="1.1"
   inkscape:version="0.91 r13725"
   sodipodi:docname="label.svg">
  <metadata
     id="metadata12">
    <rdf:RDF>
      <cc:Work
         rdf:about="">
        <dc:format>image/svg+xml</dc:format>
        <dc:type
           rdf:resource="http://purl.org/dc/dcmitype/StillImage" />
        <dc:title></dc:title>
      </cc:Work>
    </rdf:RDF>
  </metadata>
  <defs
     id="defs10" />
  <sodipodi:namedview
     pagecolor="#ffffff"
     bordercolor="#666666"
     borderopacity="1"
     objecttolerance="10"
     gridtolerance="10"
     guidetolerance="10"
     inkscape:pageopacity="0"
     inkscape:pageshadow="2"
     inkscape:window-width="1366"
     inkscape:window-height="717"
     id="namedview8"
     showgrid="false"
     inkscape:zoom="1.7383042"
     inkscape:cx="-42.780453"
     inkscape:cy="0.990271"
     inkscape:window-x="0"
     inkscape:window-y="27"
     inkscape:window-maximized="1"
     inkscape:current-layer="svg2" />
  <path
     d="M 4 2 C 2.9 2 2 2.9 2 4 L 2 11 C 2 11.55 2.2198438 12.049922 2.5898438 12.419922 L 11.589844 21.419922 C 11.949844 21.779922 12.45 22 13 22 C 13.55 22 14.050156 21.780156 14.410156 21.410156 L 21.410156 14.410156 C 21.780156 14.050156 22 13.55 22 13 C 22 12.45 21.770156 11.940078 21.410156 11.580078 L 12.410156 2.5800781 C 12.050156 2.2200781 11.55 2 11 2 L 4 2 z M 5.5 4 C 6.33 4 7 4.67 7 5.5 C 7 6.33 6.33 7 5.5 7 C 4.67 7 4 6.33 4 5.5 C 4 4.67 4.67 4 5.5 4 z M 12.210938 5.2832031 L 19.28125 12.353516 L 17.867188 13.767578 L 10.796875 6.6972656 L 12.210938 5.2832031 z M 9.3828125 8.1113281 L 16.453125 15.181641 L 15.039062 16.595703 L 7.96875 9.5253906 L 9.3828125 8.1113281 z M 6.5546875 10.939453 L 10.796875 15.181641 L 9.3828125 16.595703 L 5.1386719 12.353516 L 6.5546875 10.939453 z "
     id="path4" />
</svg>
