<?xml version="1.0" encoding="UTF-8" standalone="no"?>
<svg
   xmlns:dc="http://purl.org/dc/elements/1.1/"
   xmlns:cc="http://creativecommons.org/ns#"
   xmlns:rdf="http://www.w3.org/1999/02/22-rdf-syntax-ns#"
   xmlns:svg="http://www.w3.org/2000/svg"
   xmlns="http://www.w3.org/2000/svg"
   xmlns:sodipodi="http://sodipodi.sourceforge.net/DTD/sodipodi-0.dtd"
   xmlns:inkscape="http://www.inkscape.org/namespaces/inkscape"
   width="24"
   height="24"
   viewBox="0 0 24 24"
   id="svg2"
   version="1.1"
   inkscape:version="0.91 r13725"
   sodipodi:docname="22.svg">
  <metadata
     id="metadata12">
    <rdf:RDF>
      <cc:Work
         rdf:about="">
        <dc:format>image/svg+xml</dc:format>
        <dc:type
           rdf:resource="http://purl.org/dc/dcmitype/StillImage" />
        <dc:title></dc:title>
      </cc:Work>
    </rdf:RDF>
  </metadata>
  <defs
     id="defs10" />
  <sodipodi:namedview
     pagecolor="#ffffff"
     bordercolor="#666666"
     borderopacity="1"
     objecttolerance="10"
     gridtolerance="10"
     guidetolerance="10"
     inkscape:pageopacity="0"
     inkscape:pageshadow="2"
     inkscape:window-width="1366"
     inkscape:window-height="717"
     id="namedview8"
     showgrid="false"
     inkscape:zoom="9.8333333"
     inkscape:cx="10.220339"
     inkscape:cy="12"
     inkscape:window-x="0"
     inkscape:window-y="27"
     inkscape:window-maximized="1"
     inkscape:current-layer="svg2" />
  <path
     style="fill:#000000;fill-opacity:1"
     d="M 12.458984 1 C 11.695095 1 11.044488 1.2561979 10.509766 1.7695312 C 9.9750433 2.2828646 9.7089844 2.9072917 9.7089844 3.640625 C 9.7089844 4.3739583 9.9750433 4.9964323 10.509766 5.5097656 C 11.044488 6.023099 11.695095 6.2792969 12.458984 6.2792969 C 13.222873 6.2792969 13.871528 6.023099 14.40625 5.5097656 C 14.940972 4.9964323 15.208984 4.3739583 15.208984 3.640625 C 15.208984 2.9072917 14.940972 2.2828646 14.40625 1.7695312 C 13.871528 1.2561979 13.222873 1 12.458984 1 z M 6.0410156 3.859375 C 5.3439669 3.859375 4.7495661 4.096276 4.2578125 4.5683594 C 3.7660589 5.0404427 3.5214844 5.6101302 3.5214844 6.2792969 C 3.5214844 6.9484635 3.7660589 7.5201042 4.2578125 7.9921875 C 4.7495661 8.4642708 5.3439669 8.6992188 6.0410156 8.6992188 C 6.7380644 8.6992187 7.3324652 8.4642708 7.8242188 7.9921875 C 8.3159723 7.5201042 8.5625 6.9484635 8.5625 6.2792969 C 8.5625 5.6101302 8.3159723 5.0404427 7.8242188 4.5683594 C 7.3324652 4.096276 6.7380644 3.859375 6.0410156 3.859375 z M 18.875 5.1796875 C 18.559896 5.1796875 18.290799 5.2884896 18.066406 5.5039062 C 17.842014 5.7193229 17.728516 5.9767969 17.728516 6.2792969 C 17.728516 6.5817969 17.842014 6.841224 18.066406 7.0566406 C 18.290799 7.2720573 18.559896 7.3808594 18.875 7.3808594 C 19.190104 7.3808594 19.459201 7.2720573 19.683594 7.0566406 C 19.907986 6.841224 20.021484 6.5817969 20.021484 6.2792969 C 20.021484 5.9767969 19.907986 5.7193229 19.683594 5.5039062 C 19.459201 5.2884896 19.190104 5.1796875 18.875 5.1796875 z M 3.2910156 10.240234 C 2.6608071 10.240234 2.122613 10.455885 1.6738281 10.886719 C 1.2250433 11.317552 1 11.834453 1 12.439453 C 1 13.044453 1.2250433 13.563307 1.6738281 13.994141 C 2.122613 14.424974 2.6608071 14.640625 3.2910156 14.640625 C 3.9212241 14.640625 4.4613714 14.424974 4.9101562 13.994141 C 5.3589411 13.563307 5.5839844 13.044453 5.5839844 12.439453 C 5.5839844 11.834453 5.3589411 11.317552 4.9101562 10.886719 C 4.4613714 10.455885 3.9212241 10.240234 3.2910156 10.240234 z M 21.625 11.119141 C 21.243055 11.119141 20.917752 11.249193 20.650391 11.505859 C 20.383029 11.762526 20.25 12.072786 20.25 12.439453 C 20.25 12.80612 20.383029 13.118333 20.650391 13.375 C 20.917752 13.631667 21.243055 13.759766 21.625 13.759766 C 22.006945 13.759766 22.332248 13.631667 22.599609 13.375 C 22.866971 13.118333 23 12.80612 23 12.439453 C 23 12.072786 22.866971 11.762526 22.599609 11.505859 C 22.332248 11.249193 22.006945 11.119141 21.625 11.119141 z M 6.0410156 16.619141 C 5.4680988 16.619141 4.9811199 16.812266 4.5800781 17.197266 C 4.1790364 17.582266 3.9785156 18.049609 3.9785156 18.599609 C 3.9785156 19.149609 4.1790364 19.616953 4.5800781 20.001953 C 4.9811199 20.386953 5.4680988 20.580078 6.0410156 20.580078 C 6.6043838 20.580078 7.0902777 20.386953 7.4960938 20.001953 C 7.9019098 19.616953 8.1035156 19.149609 8.1035156 18.599609 C 8.1035156 18.049609 7.9019098 17.582266 7.4960938 17.197266 C 7.0902777 16.812266 6.6043838 16.619141 6.0410156 16.619141 z M 18.875 17.060547 C 18.435764 17.060547 18.059245 17.211172 17.744141 17.513672 C 17.429036 17.816172 17.271484 18.177943 17.271484 18.599609 C 17.271484 19.021276 17.429036 19.383047 17.744141 19.685547 C 18.059245 19.988047 18.435764 20.140625 18.875 20.140625 C 19.314236 20.140625 19.690755 19.988047 20.005859 19.685547 C 20.320964 19.383047 20.478516 19.021276 20.478516 18.599609 C 20.478516 18.177943 20.320964 17.816172 20.005859 17.513672 C 19.690755 17.211172 19.314236 17.060547 18.875 17.060547 z M 12.458984 19.480469 C 11.952908 19.480469 11.520182 19.652344 11.162109 19.996094 C 10.804036 20.339844 10.625 20.754401 10.625 21.240234 C 10.625 21.726068 10.804036 22.140625 11.162109 22.484375 C 11.520182 22.828125 11.952908 23 12.458984 23 C 12.965061 23 13.395833 22.828125 13.753906 22.484375 C 14.111979 22.140625 14.291016 21.726068 14.291016 21.240234 C 14.291016 20.754401 14.111979 20.339844 13.753906 19.996094 C 13.395833 19.652344 12.965061 19.480469 12.458984 19.480469 z "
     id="rect4173" />
  <path
     d="M0 0h24v24h-24z"
     fill="none"
     id="path6" />
  <g
     transform="matrix(0.01432292,0,0,-0.01375,1,21.24)"
     id="g3027" />
</svg>
