<?xml version="1.0" encoding="UTF-8" standalone="no"?>
<svg
   xmlns:dc="http://purl.org/dc/elements/1.1/"
   xmlns:cc="http://creativecommons.org/ns#"
   xmlns:rdf="http://www.w3.org/1999/02/22-rdf-syntax-ns#"
   xmlns:svg="http://www.w3.org/2000/svg"
   xmlns="http://www.w3.org/2000/svg"
   xmlns:sodipodi="http://sodipodi.sourceforge.net/DTD/sodipodi-0.dtd"
   xmlns:inkscape="http://www.inkscape.org/namespaces/inkscape"
   width="24"
   height="24"
   viewBox="0 0 24 24"
   id="svg3336"
   version="1.1"
   inkscape:version="0.91 r13725"
   sodipodi:docname="17.svg">
  <metadata
     id="metadata3346">
    <rdf:RDF>
      <cc:Work
         rdf:about="">
        <dc:format>image/svg+xml</dc:format>
        <dc:type
           rdf:resource="http://purl.org/dc/dcmitype/StillImage" />
        <dc:title />
      </cc:Work>
    </rdf:RDF>
  </metadata>
  <defs
     id="defs3344" />
  <sodipodi:namedview
     pagecolor="#ffffff"
     bordercolor="#666666"
     borderopacity="1"
     objecttolerance="10"
     gridtolerance="10"
     guidetolerance="10"
     inkscape:pageopacity="0"
     inkscape:pageshadow="2"
     inkscape:window-width="1366"
     inkscape:window-height="717"
     id="namedview3342"
     showgrid="false"
     inkscape:zoom="22.627416"
     inkscape:cx="12.007161"
     inkscape:cy="11.974702"
     inkscape:window-x="0"
     inkscape:window-y="27"
     inkscape:window-maximized="1"
     inkscape:current-layer="svg3336" />
  <path
     style="fill:none"
     inkscape:connector-curvature="0"
     d="M 0,0 24,0 24,24 0,24 Z"
     id="path3340" />
  <path
     style="color:#000000;font-style:normal;font-variant:normal;font-weight:normal;font-stretch:normal;font-size:medium;line-height:normal;font-family:sans-serif;text-indent:0;text-align:start;text-decoration:none;text-decoration-line:none;text-decoration-style:solid;text-decoration-color:#000000;letter-spacing:normal;word-spacing:normal;text-transform:none;direction:ltr;block-progression:tb;writing-mode:lr-tb;baseline-shift:baseline;text-anchor:start;white-space:normal;clip-rule:nonzero;display:inline;overflow:visible;visibility:visible;opacity:1;isolation:auto;mix-blend-mode:normal;color-interpolation:sRGB;color-interpolation-filters:linearRGB;solid-color:#000000;solid-opacity:1;fill:#000000;fill-opacity:1;fill-rule:nonzero;stroke:none;stroke-width:3.01740026;stroke-linecap:butt;stroke-linejoin:miter;stroke-miterlimit:4;stroke-dasharray:none;stroke-dashoffset:0;stroke-opacity:1;color-rendering:auto;image-rendering:auto;shape-rendering:auto;text-rendering:auto;enable-background:accumulate"
     d="M 12 3.7753906 C 10.019883 3.7753906 8.2271116 4.0334528 6.7988281 4.5195312 C 6.0846864 4.7625705 5.4567377 5.054353 4.9101562 5.4941406 C 4.3635749 5.9339282 3.8222665 6.6404422 3.8222656 7.5527344 C 3.8222686 8.4650261 4.3635748 9.1715412 4.9101562 9.6113281 C 5.4567378 10.051115 6.0846866 10.342898 6.7988281 10.585938 C 8.2271113 11.072014 10.019884 11.332031 12 11.332031 C 13.980116 11.332031 15.772889 11.072015 17.201172 10.585938 C 17.915313 10.342899 18.543262 10.051115 19.089844 9.6113281 C 19.636425 9.1715413 20.177731 8.465026 20.177734 7.5527344 C 20.177734 6.6404423 19.636425 5.9339282 19.089844 5.4941406 C 18.543262 5.0543531 17.915313 4.7625705 17.201172 4.5195312 C 15.772889 4.0334528 13.980117 3.7753907 12 3.7753906 z M 19.767578 10.972656 A 7.9955788 3.615243 0 0 1 12 13.75 A 7.9955788 3.615243 0 0 1 4.2324219 10.974609 C 3.9941629 11.341705 3.8222656 11.773694 3.8222656 12.275391 C 3.8222656 13.187683 4.363575 13.894196 4.9101562 14.333984 C 5.4567378 14.773772 6.0846863 15.065554 6.7988281 15.308594 C 8.2271119 15.794673 10.019882 16.052734 12 16.052734 C 13.980118 16.052734 15.772888 15.794673 17.201172 15.308594 C 17.915314 15.065554 18.543262 14.773772 19.089844 14.333984 C 19.636425 13.894196 20.177734 13.187683 20.177734 12.275391 C 20.177734 11.773083 20.006309 11.340023 19.767578 10.972656 z M 19.683594 15.578125 A 7.9955788 3.9841449 0 0 1 12 18.472656 A 7.9955788 3.9841449 0 0 1 4.3144531 15.582031 C 4.0336275 15.971391 3.8222656 16.440033 3.8222656 16.996094 C 3.8222656 17.908386 4.363575 18.616853 4.9101562 19.056641 C 5.4567378 19.496429 6.0846863 19.786258 6.7988281 20.029297 C 8.2271117 20.515376 10.019883 20.775391 12 20.775391 C 13.980117 20.775391 15.772888 20.515376 17.201172 20.029297 C 17.915314 19.786258 18.543262 19.496429 19.089844 19.056641 C 19.636425 18.616853 20.177734 17.908386 20.177734 16.996094 C 20.177734 16.43836 19.965744 15.968111 19.683594 15.578125 z "
     id="path4449-6-3" />
  <path
     d="M 0,0 24,0 24,24 0,24 Z"
     id="path3340-1"
     inkscape:connector-curvature="0"
     style="fill:none" />
</svg>
